<?xml version="1.0" standalone="no"?>
<!DOCTYPE svg PUBLIC "-//W3C//DTD SVG 20010904//EN"
 "http://www.w3.org/TR/2001/REC-SVG-20010904/DTD/svg10.dtd">
<svg version="1.0" xmlns="http://www.w3.org/2000/svg"
 width="425.000000pt" height="425.000000pt" viewBox="0 0 425.000000 425.000000"
 preserveAspectRatio="xMidYMid meet">
<metadata>
Created by potrace 1.11, written by Peter Selinger 2001-2013
</metadata>
<g transform="translate(0.000000,425.000000) scale(0.100000,-0.100000)"
fill="#000000" stroke="none">
<path d="M2010 4244 c-543 -36 -970 -223 -1351 -591 -438 -423 -649 -920 -649
-1528 0 -582 190 -1054 590 -1469 286 -296 614 -491 985 -585 421 -107 894
-83 1295 66 477 177 924 585 1156 1056 324 657 271 1498 -132 2094 -359 530
-904 872 -1504 942 -101 12 -313 20 -390 15z m428 -760 c231 -115 186 -459
-78 -583 -49 -23 -67 -26 -165 -26 -125 0 -167 15 -222 79 -43 49 -58 98 -58
196 0 74 4 92 30 143 38 76 136 168 207 196 39 14 77 20 144 20 78 1 97 -3
142 -25z m72 -1029 c69 -66 66 -182 -15 -495 -30 -118 -90 -350 -132 -515 -98
-385 -96 -403 32 -370 67 18 144 58 223 117 29 21 56 36 61 33 5 -3 25 -27 45
-54 l35 -50 -80 -75 c-243 -229 -591 -418 -800 -433 -147 -11 -216 51 -226
204 -7 108 1 155 128 689 80 334 110 479 105 499 -7 27 -8 27 -59 22 -55 -7
-179 -62 -270 -120 l-55 -36 -36 60 c-20 33 -36 62 -36 63 0 9 202 162 307
233 262 176 489 265 665 260 70 -2 80 -5 108 -32z"/>
</g>
</svg>
